<svg width="60" height="60" viewBox="0 0 60 60" fill="none" xmlns="http://www.w3.org/2000/svg">
<path d="M60 45C60 46.7681 59.2976 48.4638 58.0474 49.714C56.7971 50.9643 55.1014 51.6666 53.3333 51.6666H6.66667C4.89856 51.6666 3.20286 50.9643 1.95262 49.714C0.702379 48.4638 0 46.7681 0 45V15C0 13.2319 0.702379 11.5362 1.95262 10.2859C3.20286 9.03569 4.89856 8.33331 6.66667 8.33331H53.3333C55.1014 8.33331 56.7971 9.03569 58.0474 10.2859C59.2976 11.5362 60 13.2319 60 15V45Z" fill="#009B3A"/>
<path d="M54.5465 30L29.9998 48.54L5.45312 30L29.9998 11.4583L54.5465 30Z" fill="#FEDF01"/>
<path d="M29.9601 40.6367C35.9045 40.6367 40.7234 35.8177 40.7234 29.8733C40.7234 23.9289 35.9045 19.11 29.9601 19.11C24.0157 19.11 19.1968 23.9289 19.1968 29.8733C19.1968 35.8177 24.0157 40.6367 29.9601 40.6367Z" fill="#002776"/>
<path d="M20.4618 24.8116C19.9026 25.865 19.524 27.0047 19.3418 28.1833C26.0001 27.7 35.0368 31.335 38.9151 35.8416C39.5851 34.835 40.0818 33.7083 40.3868 32.5016C35.6001 27.8216 27.1918 24.785 20.4618 24.8116Z" fill="#CBE9D4"/>
<path d="M20 30.3883H21.6667V32.055H20V30.3883ZM21.6667 33.7216H23.3333V35.3883H21.6667V33.7216Z" fill="#88C9F9"/>
<path d="M25 30.3883H26.6667V32.055H25V30.3883ZM28.3333 32.055H30V33.7217H28.3333V32.055ZM35 35.3883H36.6667V37.055H35V35.3883ZM30 37.055H31.6667V38.7217H30V37.055ZM35 27.055H36.6667V28.7217H35V27.055Z" fill="#55ACEE"/>
<path d="M31.6665 33.7217H33.3332V35.3883H31.6665V33.7217Z" fill="#3B88C3"/>
</svg>
