<svg width="60" height="32" viewBox="0 0 60 32" fill="none" xmlns="http://www.w3.org/2000/svg">
<g clip-path="url(#clip0_89_101)">
<path d="M0 0.210388H60V31.7894H0V0.210388Z" fill="white"/>
<path d="M0 0.210388H60V2.63959H0V0.210388ZM0 5.06879H60V7.49799H0V5.06879ZM0 9.92699H60V12.3562H0V9.92699ZM0 14.7854H60V17.2146H0V14.7854ZM0 19.6436H60V22.0728H0V19.6436ZM0 24.502H60V26.9312H0V24.502ZM0 29.3602H60V31.7894H0V29.3602Z" fill="#B22234"/>
<path d="M0 0.210388H24V17.2144H0V0.210388Z" fill="#3C3B6E"/>
<path d="M1.12744 1.59076L1.69924 2.00616L1.48084 2.67836L2.05244 2.26296L2.62424 2.67836L2.40584 2.00616L2.97744 1.59076H2.27084L2.05244 0.918762L1.83404 1.59076H1.12744ZM5.10644 1.59076L5.67804 2.00616L5.45964 2.67836L6.03144 2.26296L6.60324 2.67836L6.38484 2.00616L6.95644 1.59076H6.24984L6.03144 0.918762L5.81304 1.59076H5.10644ZM9.08544 1.59076L9.65704 2.00616L9.43864 2.67836L10.0104 2.26296L10.582 2.67836L10.3636 2.00616L10.9354 1.59076H10.2288L10.0104 0.918762L9.79204 1.59076H9.08544ZM13.0644 1.59076L13.636 2.00616L13.4176 2.67836L13.9894 2.26296L14.561 2.67836L14.3426 2.00616L14.9144 1.59076H14.2076L13.9894 0.918762L13.771 1.59076H13.0644ZM17.0432 1.59076L17.615 2.00616L17.3966 2.67836L17.9682 2.26296L18.54 2.67836L18.3216 2.00616L18.8932 1.59076H18.1866L17.9682 0.918762L17.7498 1.59076H17.0432ZM21.0222 1.59076L21.5938 2.00616L21.3754 2.67836L21.9472 2.26296L22.5188 2.67836L22.3004 2.00616L22.8722 1.59076H22.1656L21.9472 0.918762L21.7288 1.59076H21.0222ZM3.11684 3.29616L3.68864 3.71156L3.47024 4.38356L4.04204 3.96816L4.61364 4.38356L4.39524 3.71156L4.96704 3.29616H4.26024L4.04204 2.62396L3.82364 3.29616H3.11684ZM7.09584 3.29616L7.66764 3.71156L7.44924 4.38356L8.02084 3.96816L8.59264 4.38356L8.37424 3.71156L8.94584 3.29616H8.23924L8.02084 2.62396L7.80244 3.29616H7.09584ZM11.0748 3.29616L11.6466 3.71156L11.4282 4.38356L11.9998 3.96816L12.5716 4.38356L12.3532 3.71156L12.9248 3.29616H12.2182L11.9998 2.62396L11.7814 3.29616H11.0748ZM15.0538 3.29616L15.6254 3.71156L15.407 4.38356L15.9788 3.96816L16.5504 4.38356L16.332 3.71156L16.9038 3.29616H16.1972L15.9788 2.62396L15.7604 3.29616H15.0538ZM19.0326 3.29616L19.6044 3.71156L19.386 4.38356L19.9576 3.96816L20.5294 4.38356L20.311 3.71156L20.8826 3.29616H20.176L19.9576 2.62396L19.7394 3.29616H19.0326ZM1.12744 5.00136L1.69924 5.41676L1.48084 6.08896L2.05244 5.67356L2.62424 6.08896L2.40584 5.41676L2.97744 5.00136H2.27084L2.05244 4.32936L1.83404 5.00136H1.12744ZM5.10644 5.00136L5.67804 5.41676L5.45964 6.08896L6.03144 5.67356L6.60324 6.08896L6.38484 5.41676L6.95644 5.00136H6.24984L6.03144 4.32936L5.81304 5.00136H5.10644ZM9.08544 5.00136L9.65704 5.41676L9.43864 6.08896L10.0104 5.67356L10.582 6.08896L10.3636 5.41676L10.9354 5.00136H10.2288L10.0104 4.32936L9.79204 5.00136H9.08544ZM13.0644 5.00136L13.636 5.41676L13.4176 6.08896L13.9894 5.67356L14.561 6.08896L14.3426 5.41676L14.9144 5.00136H14.2076L13.9894 4.32936L13.771 5.00136H13.0644ZM17.0432 5.00136L17.615 5.41676L17.3966 6.08896L17.9682 5.67356L18.54 6.08896L18.3216 5.41676L18.8932 5.00136H18.1866L17.9682 4.32936L17.7498 5.00136H17.0432ZM21.0222 5.00136L21.5938 5.41676L21.3754 6.08896L21.9472 5.67356L22.5188 6.08896L22.3004 5.41676L22.8722 5.00136H22.1656L21.9472 4.32936L21.7288 5.00136H21.0222ZM3.16604 6.71236L3.73764 7.12776L3.51944 7.79976L4.09104 7.38436L4.66284 7.79976L4.44444 7.12756L5.01604 6.71236H4.30944L4.09104 6.04016L3.87264 6.71236H3.16604ZM7.14504 6.71236L7.71664 7.12776L7.49824 7.79976L8.07004 7.38436L8.64164 7.79976L8.42324 7.12756L8.99504 6.71236H8.28844L8.07004 6.04016L7.85164 6.71236H7.14504ZM11.124 6.71236L11.6956 7.12776L11.4772 7.79976L12.049 7.38436L12.6206 7.79976L12.4022 7.12756L12.974 6.71236H12.2672L12.049 6.04016L11.8306 6.71236H11.124ZM15.1028 6.71236L15.6746 7.12776L15.4562 7.79976L16.0278 7.38436L16.5996 7.79976L16.3812 7.12756L16.9528 6.71236H16.2462L16.0278 6.04016L15.8094 6.71236H15.1028ZM19.0818 6.71236L19.6534 7.12776L19.435 7.79976L20.0068 7.38436L20.5784 7.79976L20.36 7.12756L20.9318 6.71236H20.2252L20.0068 6.04016L19.7884 6.71236H19.0818ZM1.18784 8.40336L1.75964 8.81856L1.54124 9.49076L2.11284 9.07536L2.68464 9.49076L2.46624 8.81856L3.03784 8.40336H2.33124L2.11284 7.73116L1.89444 8.40336H1.18784ZM5.16684 8.40336L5.73844 8.81856L5.52004 9.49076L6.09184 9.07536L6.66344 9.49076L6.44524 8.81856L7.01684 8.40336H6.31024L6.09184 7.73116L5.87344 8.40336H5.16684ZM9.14584 8.40336L9.71744 8.81856L9.49904 9.49076L10.0708 9.07536L10.6424 9.49076L10.424 8.81856L10.9958 8.40336H10.2892L10.0708 7.73116L9.85244 8.40336H9.14584ZM13.1246 8.40336L13.6964 8.81856L13.478 9.49076L14.0496 9.07536L14.6214 9.49076L14.403 8.81856L14.9748 8.40336H14.268L14.0496 7.73116L13.8314 8.40336H13.1246ZM17.1036 8.40336L17.6752 8.81856L17.457 9.49076L18.0286 9.07536L18.6004 9.49076L18.382 8.81856L18.9536 8.40336H18.247L18.0286 7.73116L17.8102 8.40336H17.1036ZM21.0826 8.40336L21.6542 8.81856L21.4358 9.49076L22.0076 9.07536L22.5792 9.49076L22.3608 8.81856L22.9326 8.40336H22.226L22.0076 7.73116L21.7892 8.40336H21.0826ZM1.22524 11.7598L1.79684 12.1752L1.57844 12.8474L2.15024 12.432L2.72184 12.8474L2.50344 12.1752L3.07524 11.7598H2.36864L2.15024 11.0878L1.93184 11.7598H1.22524ZM5.20404 11.7598L5.77584 12.1752L5.55744 12.8474L6.12904 12.432L6.70084 12.8474L6.48244 12.1752L7.05404 11.7598H6.34744L6.12904 11.0878L5.91064 11.7598H5.20404ZM9.18304 11.7598L9.75464 12.1752L9.53644 12.8474L10.108 12.432L10.6798 12.8474L10.4614 12.1752L11.033 11.7598H10.3264L10.108 11.0878L9.88964 11.7598H9.18304ZM13.162 11.7598L13.7336 12.1752L13.5152 12.8474L14.087 12.432L14.6586 12.8474L14.4404 12.1752L15.012 11.7598H14.3054L14.087 11.0878L13.8686 11.7598H13.162ZM17.1408 11.7598L17.7126 12.1752L17.4942 12.8474L18.0658 12.432L18.6376 12.8474L18.4192 12.1752L18.991 11.7598H18.2842L18.0658 11.0878L17.8476 11.7598H17.1408ZM21.1198 11.7598L21.6914 12.1752L21.4732 12.8474L22.0448 12.432L22.6166 12.8474L22.3982 12.1752L22.9698 11.7598H22.2632L22.0448 11.0878L21.8264 11.7598H21.1198ZM1.17664 15.1558L1.74824 15.5712L1.52984 16.2434L2.10164 15.828L2.67324 16.2434L2.45484 15.5712L3.02664 15.1558H2.31984L2.10164 14.4838L1.88324 15.1558H1.17664ZM5.15544 15.1558L5.72724 15.5712L5.50884 16.2434L6.08044 15.828L6.65224 16.2434L6.43384 15.5712L7.00544 15.1558H6.29884L6.08044 14.4838L5.86204 15.1558H5.15544ZM9.13444 15.1558L9.70604 15.5712L9.48784 16.2434L10.0594 15.828L10.6312 16.2434L10.4128 15.5712L10.9844 15.1558H10.2778L10.0594 14.4838L9.84104 15.1558H9.13444ZM13.1134 15.1558L13.685 15.5712L13.4666 16.2434L14.0384 15.828L14.61 16.2434L14.3918 15.5712L14.9634 15.1558H14.2568L14.0384 14.4838L13.82 15.1558H13.1134ZM17.0922 15.1558L17.664 15.5712L17.4456 16.2434L18.0172 15.828L18.589 16.2434L18.3706 15.5712L18.9424 15.1558H18.2356L18.0172 14.4838L17.799 15.1558H17.0922ZM21.0712 15.1558L21.6428 15.5712L21.4246 16.2434L21.9962 15.828L22.568 16.2434L22.3496 15.5712L22.9212 15.1558H22.2146L21.9962 14.4838L21.7778 15.1558H21.0712ZM3.17784 10.0648L3.74944 10.4802L3.53124 11.1522L4.10284 10.7368L4.67464 11.1522L4.45624 10.4802L5.02784 10.0648H4.32124L4.10284 9.39256L3.88444 10.0648H3.17784ZM7.15684 10.0648L7.72844 10.4802L7.51004 11.1522L8.08184 10.7368L8.65344 11.1522L8.43524 10.4802L9.00684 10.0648H8.30024L8.08184 9.39256L7.86344 10.0648H7.15684ZM11.1358 10.0648L11.7074 10.4802L11.489 11.1522L12.0608 10.7368L12.6324 11.1522L12.414 10.4802L12.9858 10.0648H12.2792L12.0608 9.39256L11.8424 10.0648H11.1358ZM15.1146 10.0648L15.6864 10.4802L15.468 11.1522L16.0396 10.7368L16.6114 11.1522L16.393 10.4802L16.9646 10.0648H16.258L16.0396 9.39256L15.8212 10.0648H15.1146ZM19.0936 10.0648L19.6652 10.4802L19.4468 11.1522L20.0186 10.7368L20.5902 11.1522L20.372 10.4802L20.9436 10.0648H20.237L20.0186 9.39256L19.8002 10.0648H19.0936ZM3.16604 13.4554L3.73784 13.8708L3.51944 14.543L4.09104 14.1276L4.66284 14.543L4.44444 13.8708L5.01604 13.4554H4.30944L4.09104 12.7834L3.87264 13.4554H3.16604ZM7.14504 13.4554L7.71664 13.8708L7.49824 14.543L8.07004 14.1276L8.64184 14.543L8.42344 13.8708L8.99504 13.4554H8.28844L8.07004 12.7834L7.85164 13.4554H7.14504ZM11.124 13.4554L11.6956 13.8708L11.4772 14.543L12.049 14.1276L12.6206 14.543L12.4022 13.8708L12.974 13.4554H12.2674L12.049 12.7834L11.8306 13.4554H11.124ZM15.1028 13.4554L15.6746 13.8708L15.4562 14.543L16.0278 14.1276L16.5996 14.543L16.3812 13.8708L16.9528 13.4554H16.2462L16.0278 12.7834L15.8094 13.4554H15.1028ZM19.0818 13.4554L19.6534 13.8708L19.435 14.543L20.0068 14.1276L20.5784 14.543L20.3602 13.8708L20.9318 13.4554H20.2252L20.0068 12.7834L19.7884 13.4554H19.0818Z" fill="white"/>
</g>
<defs>
<clipPath id="clip0_89_101">
<rect y="0.0999756" width="60" height="31.8" rx="15.9" fill="white"/>
</clipPath>
</defs>
</svg>
